<svg xmlns="http://www.w3.org/2000/svg" xmlns:xlink="http://www.w3.org/1999/xlink" width="500" zoomAndPan="magnify" viewBox="0 0 375 374.999991" height="500" preserveAspectRatio="xMidYMid meet" version="1.0"><defs><g/></defs><g fill="#d9d9d9" fill-opacity="1"><g transform="translate(60.915088, 209.62645)"><g><path d="M 40.875 -31.984375 C 44.070312 -31.867188 46.953125 -31.070312 49.515625 -29.59375 C 52.085938 -28.113281 54.144531 -26.191406 55.6875 -23.828125 C 57.226562 -21.472656 58 -18.847656 58 -15.953125 C 58 -12.992188 57.179688 -10.316406 55.546875 -7.921875 C 53.921875 -5.535156 51.75 -3.617188 49.03125 -2.171875 C 46.3125 -0.722656 43.289062 0 39.96875 0 L 2.71875 0 L 2.71875 -0.546875 C 4.226562 -0.546875 5.507812 -1.070312 6.5625 -2.125 C 7.625 -3.1875 8.15625 -4.472656 8.15625 -5.984375 L 8.15625 -57.453125 C 8.15625 -58.960938 7.625 -60.242188 6.5625 -61.296875 C 5.507812 -62.359375 4.226562 -62.890625 2.71875 -62.890625 L 2.71875 -63.4375 L 36.796875 -63.4375 C 39.753906 -63.4375 42.425781 -62.710938 44.8125 -61.265625 C 47.195312 -59.816406 49.097656 -57.882812 50.515625 -55.46875 C 51.941406 -53.050781 52.65625 -50.359375 52.65625 -47.390625 C 52.65625 -43.710938 51.535156 -40.453125 49.296875 -37.609375 C 47.066406 -34.765625 44.257812 -32.890625 40.875 -31.984375 Z M 24.109375 -62.890625 L 24.109375 -31.984375 L 27.453125 -31.984375 C 29.148438 -31.984375 30.691406 -32.675781 32.078125 -34.0625 C 33.472656 -35.457031 34.578125 -37.316406 35.390625 -39.640625 C 36.203125 -41.972656 36.609375 -44.554688 36.609375 -47.390625 C 36.609375 -50.296875 36.203125 -52.910156 35.390625 -55.234375 C 34.578125 -57.554688 33.472656 -59.410156 32.078125 -60.796875 C 30.691406 -62.191406 29.148438 -62.890625 27.453125 -62.890625 Z M 29.265625 -0.546875 C 31.203125 -0.546875 32.96875 -1.238281 34.5625 -2.625 C 36.164062 -4.019531 37.4375 -5.894531 38.375 -8.25 C 39.3125 -10.601562 39.78125 -13.203125 39.78125 -16.046875 C 39.78125 -18.878906 39.3125 -21.457031 38.375 -23.78125 C 37.4375 -26.113281 36.164062 -27.972656 34.5625 -29.359375 C 32.96875 -30.753906 31.203125 -31.453125 29.265625 -31.453125 L 24.109375 -31.453125 L 24.109375 -0.546875 Z M 29.265625 -0.546875 "/></g></g></g><g fill="#d9d9d9" fill-opacity="1"><g transform="translate(117.371278, 209.62645)"><g><path d="M 31.53125 -5.796875 C 33.289062 -5.796875 34.96875 -6.21875 36.5625 -7.0625 C 38.164062 -7.914062 39.601562 -9.097656 40.875 -10.609375 L 41.328125 -10.328125 C 39.515625 -7.066406 37.066406 -4.453125 33.984375 -2.484375 C 30.898438 -0.523438 27.515625 0.453125 23.828125 0.453125 C 20.023438 0.453125 16.566406 -0.570312 13.453125 -2.625 C 10.347656 -4.675781 7.859375 -7.4375 5.984375 -10.90625 C 4.109375 -14.382812 3.171875 -18.238281 3.171875 -22.46875 C 3.171875 -26.695312 4.109375 -30.546875 5.984375 -34.015625 C 7.859375 -37.492188 10.347656 -40.257812 13.453125 -42.3125 C 16.566406 -44.375 20.023438 -45.40625 23.828125 -45.40625 C 27.148438 -45.40625 30.125 -44.617188 32.75 -43.046875 C 35.382812 -41.472656 37.59375 -39.34375 39.375 -36.65625 C 41.15625 -33.96875 42.378906 -30.898438 43.046875 -27.453125 L 16.765625 -27.453125 C 16.765625 -23.472656 17.425781 -19.832031 18.75 -16.53125 C 20.082031 -13.238281 21.863281 -10.625 24.09375 -8.6875 C 26.332031 -6.757812 28.8125 -5.796875 31.53125 -5.796875 Z M 23.828125 -44.859375 C 22.566406 -44.859375 21.523438 -44.390625 20.703125 -43.453125 C 19.890625 -42.515625 19.210938 -41.304688 18.671875 -39.828125 C 18.128906 -38.347656 17.734375 -36.820312 17.484375 -35.25 C 17.242188 -33.675781 17.0625 -32.222656 16.9375 -30.890625 C 16.820312 -29.566406 16.765625 -28.601562 16.765625 -28 L 30.71875 -28 C 30.175781 -39.238281 27.878906 -44.859375 23.828125 -44.859375 Z M 23.828125 -44.859375 "/></g></g></g><g fill="#d9d9d9" fill-opacity="1"><g transform="translate(157.515668, 209.62645)"><g><path d="M 42.328125 -29.265625 C 43.835938 -27.753906 45.101562 -25.742188 46.125 -23.234375 C 47.15625 -20.734375 48.125 -18.109375 49.03125 -15.359375 C 49.9375 -12.609375 50.882812 -10.023438 51.875 -7.609375 C 52.875 -5.191406 54.082031 -3.300781 55.5 -1.9375 C 56.925781 -0.582031 58.664062 -0.117188 60.71875 -0.546875 L 60.71875 0 C 59.570312 1.144531 57.96875 2.050781 55.90625 2.71875 C 53.851562 3.382812 51.617188 3.75 49.203125 3.8125 C 46.242188 3.8125 43.722656 3.175781 41.640625 1.90625 C 39.554688 0.632812 37.800781 -1.039062 36.375 -3.125 C 34.957031 -5.207031 33.78125 -7.503906 32.84375 -10.015625 C 31.914062 -12.523438 31.132812 -15.03125 30.5 -17.53125 C 29.863281 -20.039062 29.269531 -22.351562 28.71875 -24.46875 C 28.175781 -26.582031 27.585938 -28.273438 26.953125 -29.546875 C 26.328125 -30.816406 25.53125 -31.453125 24.5625 -31.453125 L 24.109375 -31.453125 C 24.109375 -30.660156 24.109375 -29.898438 24.109375 -29.171875 C 24.109375 -28.453125 24.109375 -27.789062 24.109375 -27.1875 L 24.109375 -5.984375 C 24.109375 -4.472656 24.648438 -3.1875 25.734375 -2.125 C 26.828125 -1.070312 28.128906 -0.546875 29.640625 -0.546875 L 29.640625 0 L 2.71875 0 L 2.71875 -0.546875 C 4.226562 -0.546875 5.507812 -1.070312 6.5625 -2.125 C 7.625 -3.1875 8.15625 -4.472656 8.15625 -5.984375 C 8.15625 -10.753906 8.15625 -14.84375 8.15625 -18.25 C 8.15625 -21.664062 8.15625 -24.765625 8.15625 -27.546875 C 8.15625 -30.328125 8.15625 -33.109375 8.15625 -35.890625 C 8.15625 -38.671875 8.15625 -41.765625 8.15625 -45.171875 C 8.15625 -48.585938 8.15625 -52.679688 8.15625 -57.453125 C 8.15625 -58.960938 7.625 -60.242188 6.5625 -61.296875 C 5.507812 -62.359375 4.226562 -62.890625 2.71875 -62.890625 L 2.71875 -63.4375 L 38.78125 -63.4375 C 41.925781 -63.4375 44.78125 -62.722656 47.34375 -61.296875 C 49.914062 -59.878906 51.972656 -57.976562 53.515625 -55.59375 C 55.054688 -53.207031 55.828125 -50.535156 55.828125 -47.578125 C 55.828125 -44.679688 55.054688 -42.023438 53.515625 -39.609375 C 51.972656 -37.191406 49.914062 -35.269531 47.34375 -33.84375 C 44.78125 -32.425781 41.925781 -31.71875 38.78125 -31.71875 L 37.421875 -31.71875 C 37.421875 -31.71875 37.960938 -31.597656 39.046875 -31.359375 C 40.140625 -31.117188 41.234375 -30.421875 42.328125 -29.265625 Z M 30.09375 -31.984375 C 31.90625 -31.984375 33.535156 -32.675781 34.984375 -34.0625 C 36.429688 -35.457031 37.59375 -37.332031 38.46875 -39.6875 C 39.34375 -42.050781 39.78125 -44.648438 39.78125 -47.484375 C 39.78125 -50.328125 39.34375 -52.910156 38.46875 -55.234375 C 37.59375 -57.554688 36.429688 -59.410156 34.984375 -60.796875 C 33.535156 -62.191406 31.90625 -62.890625 30.09375 -62.890625 L 24.109375 -62.890625 C 24.109375 -57.335938 24.109375 -52.75 24.109375 -49.125 C 24.109375 -45.5 24.109375 -42.597656 24.109375 -40.421875 C 24.109375 -38.242188 24.109375 -36.609375 24.109375 -35.515625 C 24.109375 -34.429688 24.109375 -33.644531 24.109375 -33.15625 C 24.109375 -32.675781 24.109375 -32.285156 24.109375 -31.984375 Z M 30.09375 -31.984375 "/></g></g></g><g fill="#d9d9d9" fill-opacity="1"><g transform="translate(214.878075, 209.62645)"><g><path d="M 5.984375 -4.984375 L 5.984375 -37.25 C 5.984375 -38.394531 5.617188 -39.375 4.890625 -40.1875 C 4.171875 -41.007812 3.296875 -41.507812 2.265625 -41.6875 L 2.265625 -42.234375 L 17.765625 -44.5 C 17.828125 -44.5 17.867188 -44.5 17.890625 -44.5 C 17.921875 -44.5 17.96875 -44.5 18.03125 -44.5 C 19.0625 -44.5 19.578125 -43.984375 19.578125 -42.953125 L 19.578125 -4.984375 C 19.578125 -3.898438 19.9375 -2.929688 20.65625 -2.078125 C 21.382812 -1.234375 22.265625 -0.722656 23.296875 -0.546875 L 23.296875 0 L 2.265625 0 L 2.265625 -0.546875 C 3.296875 -0.722656 4.171875 -1.234375 4.890625 -2.078125 C 5.617188 -2.929688 5.984375 -3.898438 5.984375 -4.984375 Z M 19.84375 -56.375 C 19.84375 -54.5 19.144531 -52.863281 17.75 -51.46875 C 16.363281 -50.082031 14.707031 -49.390625 12.78125 -49.390625 C 10.84375 -49.390625 9.191406 -50.082031 7.828125 -51.46875 C 6.472656 -52.863281 5.796875 -54.5 5.796875 -56.375 C 5.796875 -58.300781 6.472656 -59.957031 7.828125 -61.34375 C 9.191406 -62.738281 10.84375 -63.4375 12.78125 -63.4375 C 14.707031 -63.4375 16.363281 -62.738281 17.75 -61.34375 C 19.144531 -59.957031 19.84375 -58.300781 19.84375 -56.375 Z M 19.84375 -56.375 "/></g></g></g><g fill="#d9d9d9" fill-opacity="1"><g transform="translate(235.267051, 209.62645)"><g><path d="M 23.828125 -44.859375 C 23.046875 -44.859375 22.09375 -44.070312 20.96875 -42.5 C 19.851562 -40.925781 18.875 -38.828125 18.03125 -36.203125 C 17.1875 -33.578125 16.765625 -30.660156 16.765625 -27.453125 C 16.765625 -23.472656 17.425781 -19.832031 18.75 -16.53125 C 20.082031 -13.238281 21.863281 -10.625 24.09375 -8.6875 C 26.332031 -6.757812 28.8125 -5.796875 31.53125 -5.796875 C 33.289062 -5.796875 34.96875 -6.21875 36.5625 -7.0625 C 38.164062 -7.914062 39.601562 -9.097656 40.875 -10.609375 L 41.328125 -10.328125 C 39.515625 -7.066406 37.066406 -4.453125 33.984375 -2.484375 C 30.898438 -0.523438 27.515625 0.453125 23.828125 0.453125 C 20.023438 0.453125 16.566406 -0.570312 13.453125 -2.625 C 10.347656 -4.675781 7.859375 -7.4375 5.984375 -10.90625 C 4.109375 -14.382812 3.171875 -18.238281 3.171875 -22.46875 C 3.171875 -26.695312 4.109375 -30.546875 5.984375 -34.015625 C 7.859375 -37.492188 10.347656 -40.257812 13.453125 -42.3125 C 16.566406 -44.375 20.023438 -45.40625 23.828125 -45.40625 C 26.910156 -45.40625 29.78125 -44.738281 32.4375 -43.40625 C 35.101562 -42.082031 37.25 -40.4375 38.875 -38.46875 C 40.507812 -36.507812 41.328125 -34.5625 41.328125 -32.625 C 41.328125 -30.6875 40.628906 -29.035156 39.234375 -27.671875 C 37.847656 -26.316406 36.1875 -25.640625 34.25 -25.640625 C 32.382812 -25.640625 30.753906 -26.316406 29.359375 -27.671875 C 27.972656 -29.035156 27.28125 -30.6875 27.28125 -32.625 C 27.28125 -34.195312 27.609375 -35.421875 28.265625 -36.296875 C 28.929688 -37.171875 29.582031 -37.96875 30.21875 -38.6875 C 30.851562 -39.414062 31.171875 -40.296875 31.171875 -41.328125 C 31.171875 -42.410156 30.71875 -43.191406 29.8125 -43.671875 C 28.90625 -44.160156 27.863281 -44.476562 26.6875 -44.625 C 25.507812 -44.78125 24.554688 -44.859375 23.828125 -44.859375 Z M 23.828125 -44.859375 "/></g></g></g><g fill="#d9d9d9" fill-opacity="1"><g transform="translate(273.689648, 209.62645)"><g><path d="M 43.40625 -4.984375 C 43.40625 -3.898438 43.765625 -2.929688 44.484375 -2.078125 C 45.210938 -1.234375 46.09375 -0.722656 47.125 -0.546875 L 47.125 0 L 26.09375 0 L 26.09375 -0.546875 C 27.125 -0.722656 28 -1.234375 28.71875 -2.078125 C 29.445312 -2.929688 29.8125 -3.898438 29.8125 -4.984375 L 29.8125 -31.71875 C 29.8125 -33.289062 30.203125 -34.53125 30.984375 -35.4375 C 31.773438 -36.34375 32.5625 -37.203125 33.34375 -38.015625 C 34.132812 -38.828125 34.53125 -39.78125 34.53125 -40.875 C 34.53125 -41.894531 33.953125 -42.675781 32.796875 -43.21875 C 31.648438 -43.769531 30.171875 -44.046875 28.359375 -44.046875 C 26.128906 -44.046875 24.179688 -43.726562 22.515625 -43.09375 C 20.859375 -42.457031 19.878906 -42.078125 19.578125 -41.953125 L 19.578125 -4.984375 C 19.578125 -3.898438 19.9375 -2.929688 20.65625 -2.078125 C 21.382812 -1.234375 22.265625 -0.722656 23.296875 -0.546875 L 23.296875 0 L 2.265625 0 L 2.265625 -0.546875 C 3.296875 -0.722656 4.171875 -1.234375 4.890625 -2.078125 C 5.617188 -2.929688 5.984375 -3.898438 5.984375 -4.984375 L 5.984375 -56.1875 C 5.984375 -57.269531 5.617188 -58.234375 4.890625 -59.078125 C 4.171875 -59.929688 3.296875 -60.445312 2.265625 -60.625 L 2.265625 -61.171875 L 17.765625 -63.4375 C 17.828125 -63.4375 17.867188 -63.4375 17.890625 -63.4375 C 17.921875 -63.4375 17.96875 -63.4375 18.03125 -63.4375 C 19.0625 -63.4375 19.578125 -62.894531 19.578125 -61.8125 L 19.578125 -42.59375 C 21.265625 -43.4375 23.148438 -44.113281 25.234375 -44.625 C 27.316406 -45.144531 29.414062 -45.40625 31.53125 -45.40625 C 33.644531 -45.40625 35.609375 -44.992188 37.421875 -44.171875 C 39.234375 -43.359375 40.679688 -42.0625 41.765625 -40.28125 C 42.859375 -38.5 43.40625 -36.066406 43.40625 -32.984375 Z M 43.40625 -4.984375 "/></g></g></g></svg>