<?xml version="1.0" encoding="UTF-8"?>
<svg version="1.1" viewBox="0 0 2000 2000" width="500" height="500" xmlns="http://www.w3.org/2000/svg">
<path transform="translate(968,329)" d="m0 0h62l21 1 38 6 25 5 39 10 24 8 24 10 23 10 19 10 15 9 21 13 19 13 13 10 12 9 15 13 15 14 12 11 11 12 13 14 9 11 14 18 13 18 12 19 12 20 12 23 11 23 10 26 9 27 9 34 5 24 5 33 1 13 1 30v25l-1 34-3 26-5 32-8 35-9 30-10 27-9 20-16 33-15 24-12 19-13 18-10 13-9 11-12 13-11 12-13 14-8 7-10 9-14 12-18 14-19 13-17 11-24 14-23 12-22 11-27 10-33 11-36 8-37 6-25 3-35 2h-20l-33-2-40-5-22-4-31-7-26-8-32-12-30-14-16-8-29-17-16-10-17-13-12-9-16-13-14-12-15-14-13-13-7-8-14-15-12-16-14-19-16-24-17-29-7-14-13-28-11-30-8-25-9-35-4-20-4-28-3-33v-46l1-24 4-33 6-34 9-36 12-36 10-25 14-29 10-19 17-28 10-14 14-18 10-13 9-10 10-11 7-8 18-18 8-7 13-12 14-11 19-14 14-10 19-12 22-13 19-10 29-13 27-10 23-7 37-9 29-6 29-4zm158 114-1 1v416l1 60 5-2 15-10 15-11 16-11 12-9 6-7 14-7 10-9 3-5 2-12 1-14v-379l-1-1zm-268 79-2 1v318l1 52 16-8 26-14 22-12 24-13 8-6 3-4 1-8 1-58v-213l-1-29-1-5-2-1zm483 241-20 1-6 3-1 5 6 10 6 8 3 5 1 4-4 2-13 9-18 13-13 9-18 13-17 12-18 13-19 13-36 26-20 14-19 14-14 10-12 8-19 14-18 13-10 8-25 25-1 5 2 6 4 6 5 2v-4l-1-4 4-1-1 11 3 1 1 5 7 3 5 1 8-3 13-9 14-10 15-10 18-13 16-11 14-10 17-12 18-13 19-13 12-9 19-14 17-12 23-16 18-13 17-12 18-13 17-12h3l10 15 10 13 4 4 5-1 6-12 11-29 15-39 7-21v-7l-1-1zm-604 218-1 5-8-1-16 8-28 15-23 12-22 12-28 15-22 12-15 8-6 5-1 5 4 10 12 22 5 6h6l28-15 18-10 26-14 22-12 28-15 22-12 18-11 12-9 3-5v-5l-5-6-10-6-8-6-7-4-2-4zm209 11-1 1v9l5-1 1-5-1-3zm-157 1m160 49v32h9l2 5 4 3 11 3v11l3 1 3-2v-2l5-2 9-6-1-4-7-3-5-4h-3v2l-4-2-1-2v-20l2-5-1-5z" fill="#235089"/>
<path transform="translate(728,636)" d="m0 0h98l1 1v272l-9 6-25 14-23 13-39 21h-2l-1-6-1-197v-99z" fill="#497EC4"/>
<path transform="translate(977,849)" d="m0 0h5l4 4v189l7-4 19-13 15-11 17-12 15-11 2 1-23 23-1 5 2 6 3 5 5 2-2-4 1-4 4-1 1 1-1 9-1 2 4 1 1 5 11 3 8-2-4 4-19 13-18 13-14 10-17 12-14 10-18 13-19 13-4 2h-7l-3-4v-200l-28 15-18 10-22 12-28 15-21 12-12 6-18 10-28 15-5 2 4-4 7-5 3-5v-5l-4-5-10-6-8-6-8-4-1-4h-2l2 2h-2l-1 3-7-1-1-2 30-16 23-13 32-17 22-12 29-16 28-15 22-12 29-16 32-17zm-31 143-1 1v9l5-1 1-5-1-3zm-157 1m160 49v32h9l2 5 4 3 11 3v11l3 1 3-2v-2l5-2 9-6-1-4-7-3-5-4h-3v2l-4-2-1-2v-20l2-5-1-5z" fill="#FEFEFE"/>
<path transform="translate(987,692)" d="m0 0h98l1 4v255l-14 10-17 12-18 13-17 12-11 8-4 2-1-6-1-150-4-10-5-6-7-4z" fill="#497EC4"/>
<path transform="translate(695,1431)" d="m0 0 56 1 14 3 10 6 6 8 2 5 1 13-2 8-5 9-9 7-1 2 5 2 8 7 5 8 2 6v13l-4 10-7 8-10 5-14 3h-62l-1-1v-121zm23 24v26l1 1h26l7-4 3-7-2-9-5-5-6-2zm0 48v28l2 1h24l8-3 4-4 1-3v-9l-4-6-5-3-4-1z" fill="#24518B"/>
<path transform="translate(901,1432)" d="m0 0h57l14 3 10 5 8 8 5 11 1 5v12l-3 11-6 9-8 6-8 4 1 5 15 26 9 15v3l-12 1h-16l-4-2-8-13-15-27-3-4v-2l-7-1v42l-2 6h-18l-9-1-2-5v-114zm31 23-2 1v27l1 5 4 1h15l10-3 6-7 1-3v-8l-4-8-7-4-6-1z" fill="#25528B"/>
<path transform="translate(1209,1431)" d="m0 0h11l12 1 1 2v46h47l1-15 1-34h15l12 1 1 1v121l-3 1h-25l-1-6-1-44-47-1v49l-3 2h-22l-3-1-1-2v-119z" fill="#25528B"/>
<path transform="translate(1116,1431)" d="m0 0h20l17 4 9 5 10 9 9 14 3 7v3h-30l-8-7-9-6-6-2h-12l-10 4-8 7-4 8-2 8v17l3 10 6 8 6 5 7 3 12 1 10-3 9-7 5-5h30l-2 9-5 10-6 7-11 8-9 4-11 3-8 1h-10l-16-3-12-5-11-8-8-9-7-14-4-16v-13l3-15 5-12 8-11 10-9 13-7z" fill="#25528B"/>
<path transform="translate(807,1432)" d="m0 0h73l1 1v16l-1 6h-45v26l40 1 1 1v19l-1 1-39 1-1 27 45 1 1 2v20l-1 1h-71l-3-3v-117z" fill="#24528B"/>
<path transform="translate(1017,1432)" d="m0 0h29l1 6v109l-1 7-2 1h-25l-2-3z" fill="#24518B"/>
<path transform="translate(1225,447)" d="m0 0h1v401l-3 5-6 5-2-1 5-6 2-8 2-20z" fill="#6D97CF"/>
<path transform="translate(1224,823)" d="m0 0h1l1 25-3 5-6 5-2-1 5-6 2-8z" fill="#F8FAFC"/>
<path transform="translate(950,1064)" d="m0 0h7l2 2v5l-1 1-7-1z" fill="#FEFEFE"/>
<path transform="translate(1183,872)" d="m0 0h5l-2 4-4 4h-2l-1-3 2-3h2z" fill="#FEFEFE"/>
<path transform="translate(956,828)" d="m0 0h1v12l-5 3-2-1 5-6z" fill="#C6D6EC"/>
<path transform="translate(1040,1019)" d="m0 0" fill="#FEFEFE"/>
</svg>
